<svg width="24" height="24" viewBox="0 0 24 24" fill="none" xmlns="http://www.w3.org/2000/svg">
<path d="M12.9998 4.00005L11.9998 6.93405L10.9998 4.00005C10.9459 3.84115 10.9306 3.67168 10.9553 3.50569C10.9799 3.33971 11.0437 3.18198 11.1415 3.04559C11.2392 2.90919 11.3681 2.79806 11.5173 2.72139C11.6666 2.64473 11.832 2.60474 11.9998 2.60474C12.1676 2.60474 12.333 2.64473 12.4823 2.72139C12.6315 2.79806 12.7604 2.90919 12.8581 3.04559C12.9559 3.18198 13.0197 3.33971 13.0444 3.50569C13.069 3.67168 13.0537 3.84115 12.9998 4.00005ZM3.99981 11.0001L6.93381 12.0001L3.99981 13.0001C3.8409 13.054 3.67143 13.0692 3.50545 13.0446C3.33946 13.02 3.18174 12.9561 3.04534 12.8584C2.90895 12.7606 2.79781 12.6318 2.72115 12.4825C2.64448 12.3332 2.60449 12.1679 2.60449 12.0001C2.60449 11.8322 2.64448 11.6669 2.72115 11.5176C2.79781 11.3683 2.90895 11.2395 3.04534 11.1417C3.18174 11.044 3.33946 10.9801 3.50545 10.9555C3.67143 10.9309 3.8409 10.9461 3.99981 11.0001ZM10.9998 20.0001L11.9998 17.0661L12.9998 20.0001C13.0537 20.159 13.069 20.3284 13.0444 20.4944C13.0197 20.6604 12.9559 20.8181 12.8581 20.9545C12.7604 21.0909 12.6315 21.202 12.4823 21.2787C12.333 21.3554 12.1676 21.3954 11.9998 21.3954C11.832 21.3954 11.6666 21.3554 11.5173 21.2787C11.3681 21.202 11.2392 21.0909 11.1415 20.9545C11.0437 20.8181 10.9799 20.6604 10.9553 20.4944C10.9306 20.3284 10.9459 20.159 10.9998 20.0001ZM19.9998 12.9981L17.0658 11.9981L19.9998 10.9981C20.1587 10.9441 20.3282 10.9289 20.4942 10.9535C20.6602 10.9781 20.8179 11.042 20.9543 11.1397C21.0907 11.2375 21.2018 11.3663 21.2785 11.5156C21.3551 11.6649 21.3951 11.8302 21.3951 11.9981C21.3951 12.1659 21.3551 12.3312 21.2785 12.4805C21.2018 12.6298 21.0907 12.7586 20.9543 12.8564C20.8179 12.9541 20.6602 13.018 20.4942 13.0426C20.3282 13.0672 20.1587 13.052 19.9998 12.9981ZM7.04981 5.63605L8.41681 8.41705L5.63581 7.05005C5.48468 6.97611 5.35339 6.86715 5.25285 6.73224C5.15231 6.59733 5.08542 6.44037 5.05776 6.27441C5.03009 6.10845 5.04245 5.93828 5.09379 5.77806C5.14514 5.61783 5.23399 5.47218 5.35296 5.3532C5.47193 5.23423 5.61759 5.14538 5.77781 5.09404C5.93804 5.04269 6.10821 5.03034 6.27417 5.058C6.44013 5.08567 6.59709 5.15255 6.732 5.25309C6.8669 5.35363 6.97586 5.48492 7.04981 5.63605ZM5.63581 16.9491L8.41681 15.5821L7.04981 18.3631C6.97586 18.5142 6.8669 18.6455 6.732 18.746C6.59709 18.8466 6.44013 18.9134 6.27417 18.9411C6.10821 18.9688 5.93804 18.9564 5.77781 18.9051C5.61759 18.8537 5.47193 18.7649 5.35296 18.6459C5.23399 18.5269 5.14514 18.3813 5.09379 18.2211C5.04245 18.0608 5.03009 17.8907 5.05776 17.7247C5.08542 17.5587 5.15231 17.4018 5.25285 17.2669C5.35339 17.132 5.48468 17.023 5.63581 16.9491ZM16.9488 18.3631L15.5818 15.5821L18.3628 16.9491C18.5139 17.023 18.6452 17.132 18.7458 17.2669C18.8463 17.4018 18.9132 17.5587 18.9409 17.7247C18.9685 17.8907 18.9562 18.0608 18.9048 18.2211C18.8535 18.3813 18.7646 18.5269 18.6457 18.6459C18.5267 18.7649 18.381 18.8537 18.2208 18.9051C18.0606 18.9564 17.8904 18.9688 17.7245 18.9411C17.5585 18.9134 17.4015 18.8466 17.2666 18.746C17.1317 18.6455 17.0228 18.5142 16.9488 18.3631ZM18.3618 7.04805L15.5798 8.41605L16.9478 5.63405C17.0218 5.48292 17.1307 5.35163 17.2656 5.25109C17.4005 5.15055 17.5575 5.08367 17.7235 5.056C17.8894 5.02834 18.0596 5.04069 18.2198 5.09204C18.38 5.14338 18.5257 5.23223 18.6447 5.3512C18.7636 5.47018 18.8525 5.61583 18.9038 5.77606C18.9552 5.93628 18.9675 6.10645 18.9399 6.27241C18.9122 6.43837 18.8453 6.59533 18.7448 6.73024C18.6442 6.86515 18.5129 6.9741 18.3618 7.04805ZM11.9998 16.5001C9.51881 16.5001 7.49981 14.4811 7.49981 12.0001C7.49981 9.51905 9.51881 7.50005 11.9998 7.50005C14.4808 7.50005 16.4998 9.51905 16.4998 12.0001C16.4998 14.4811 14.4808 16.5001 11.9998 16.5001ZM11.9998 9.50005C10.6208 9.50005 9.49981 10.6211 9.49981 12.0001C9.49981 13.3791 10.6208 14.5001 11.9998 14.5001C13.3788 14.5001 14.4998 13.3791 14.4998 12.0001C14.4998 10.6211 13.3788 9.50005 11.9998 9.50005Z" fill="black"/>
</svg>
